<?xml version="1.0" encoding="UTF-8" standalone="no"?>
<svg
   height="20"
   viewBox="0 -960 800 800"
   width="20"
   version="1.1"
   id="svg4"
   sodipodi:docname="favicon.svg"
   inkscape:version="1.2.2 (732a01da63, 2022-12-09)"
   xmlns:inkscape="http://www.inkscape.org/namespaces/inkscape"
   xmlns:sodipodi="http://sodipodi.sourceforge.net/DTD/sodipodi-0.dtd"
   xmlns:xlink="http://www.w3.org/1999/xlink"
   xmlns="http://www.w3.org/2000/svg"
   xmlns:svg="http://www.w3.org/2000/svg">
  <defs
     id="defs8">
    <linearGradient
       inkscape:collect="always"
       id="linearGradient2801">
      <stop
         style="stop-color:#acfff6;stop-opacity:0;"
         offset="0"
         id="stop2799" />
      <stop
         style="stop-color:#cadbd4;stop-opacity:1;"
         offset="0.7589041"
         id="stop2797" />
    </linearGradient>
    <linearGradient
       inkscape:collect="always"
       xlink:href="#linearGradient2801"
       id="linearGradient2803"
       x1="112"
       y1="-486.86311"
       x2="691.91443"
       y2="-486.86311"
       gradientUnits="userSpaceOnUse" />
  </defs>
  <sodipodi:namedview
     id="namedview6"
     pagecolor="#ffffff"
     bordercolor="#000000"
     borderopacity="0.25"
     inkscape:showpageshadow="2"
     inkscape:pageopacity="0.0"
     inkscape:pagecheckerboard="0"
     inkscape:deskcolor="#d1d1d1"
     showgrid="false"
     inkscape:zoom="17.270833"
     inkscape:cx="8.8878166"
     inkscape:cy="6.9481303"
     inkscape:window-width="1920"
     inkscape:window-height="1009"
     inkscape:window-x="-8"
     inkscape:window-y="-8"
     inkscape:window-maximized="1"
     inkscape:current-layer="svg4" />
  <rect
     style="fill:url(#linearGradient2803);fill-opacity:1;stroke:none;stroke-width:397.53;stroke-linecap:round;stroke-linejoin:round;stroke-opacity:1;paint-order:stroke fill markers"
     id="rect1575"
     width="579.91443"
     height="386.27377"
     x="112"
     y="-680" />
  <path
     d="m 80,-700.769 h 640 v 343.846 q 0,40.385 -28.269,68.654 Q 663.462,-260 623.077,-260 H 176.923 q -40.385,0 -68.654,-28.269 Q 80,-316.538 80,-356.923 Z m 40,40 v 303.846 q 0,24.192 16.365,40.558 16.366,16.365 40.558,16.365 h 446.154 q 24.192,0 40.558,-16.365 Q 680,-332.731 680,-356.923 v -303.846 z m -40,-95.385 v -40 h 220 v -30.769 q 0,-14.058 9.192,-23.568 9.193,-9.509 23.496,-9.509 h 134.624 q 14.303,0 23.496,9.509 9.192,9.51 9.192,23.568 v 30.769 h 220 v 40 z m 320,275.385 z"
     id="path2"
     style="fill:#3e637f;fill-opacity:1;stroke:none;stroke-opacity:1" />
</svg>
