<?xml version="1.0" encoding="UTF-8" standalone="no"?>
<svg
   height="20"
   viewBox="0 -960 800 800"
   width="20"
   version="1.1"
   id="svg135"
   xmlns:xlink="http://www.w3.org/1999/xlink"
   xmlns="http://www.w3.org/2000/svg"
   xmlns:svg="http://www.w3.org/2000/svg">
  <defs
     id="defs139">
    <linearGradient
       id="linearGradient1481">
      <stop
         style="stop-color:#fff17e;stop-opacity:1;"
         offset="0"
         id="stop1477" />
      <stop
         style="stop-color:#ffffff;stop-opacity:0;"
         offset="1"
         id="stop1479" />
    </linearGradient>
    <radialGradient
       xlink:href="#linearGradient1481"
       id="radialGradient1483"
       cx="400"
       cy="-560"
       fx="400"
       fy="-560"
       r="320"
       gradientUnits="userSpaceOnUse"
       gradientTransform="matrix(1.2500001,0,0,1.25,-100,140)" />
  </defs>
  <circle
     style="fill:url(#radialGradient1483);fill-opacity:1;stroke-width:258.52;stroke-linecap:round;stroke-linejoin:round;paint-order:stroke fill markers"
     id="path1450"
     cx="400"
     cy="-560"
     r="400" />
  <path
     d="M 296.15469,-200.002 V -391.54 Q 235.20852,-396.289 176.72034,-404.838 118.23117,-413.386 60,-429.232 l 14.615043,-59.999 q 79.539237,21.077 160.821477,29.384 81.28324,8.308 164.47848,8.308 82.23924,0 163.58448,-8.308 81.34624,-8.307 161.88548,-29.384 L 740,-429.232 q -58.84717,15.846 -117.57735,24.461 -58.73117,8.615 -118.57734,13.4 v 191.369 z M 400.054,-503.847 q -31.36109,0 -52.63115,-21.2 -21.26907,-21.199 -21.26907,-52.537 0,-30.417 21.20007,-52.186 21.19906,-21.769 52.53715,-21.769 30.41609,0 52.18615,21.676 21.76907,21.677 21.76907,52.116 0,31.361 -21.67707,52.63 -21.67606,21.27 -52.11515,21.27 z M 110.00015,-620.001 q -21.385066,0 -35.692108,-14.307 Q 60,-648.616 60,-670.106 60,-690.769 74.308042,-705.384 88.615084,-720 110.10515,-720 q 20.66406,0 35.2791,14.584 14.61504,14.583 14.61504,35.416 0,21.384 -14.58304,35.692 -14.58304,14.307 -35.4161,14.307 z m 579.9997,0 q -21.38406,0 -35.6921,-14.307 -14.30704,-14.308 -14.30704,-35.798 0,-20.663 14.30704,-35.278 14.30804,-14.616 35.7981,-14.616 20.66306,0 35.27811,14.584 Q 740,-690.833 740,-670 q 0,21.384 -14.58404,35.692 -14.58305,14.307 -35.41611,14.307 z m -476.1544,-148.077 q -21.38406,0 -35.6911,-14.307 -14.30804,-14.308 -14.30804,-35.798 0,-20.663 14.30804,-35.278 14.30704,-14.615 35.7971,-14.615 20.66306,0 35.27911,14.583 14.61504,14.583 14.61504,35.416 0,21.384 -14.58304,35.692 -14.58405,14.307 -35.41711,14.307 z m 372.3091,0 q -21.38507,0 -35.69211,-14.307 -14.30804,-14.308 -14.30804,-35.798 0,-20.663 14.30804,-35.278 14.30704,-14.615 35.79711,-14.615 20.66306,0 35.2791,14.583 14.61504,14.583 14.61504,35.416 0,21.384 -14.58304,35.692 -14.58304,14.307 -35.4161,14.307 z M 400,-820.001 q -21.38406,0 -35.6921,-14.307 -14.30705,-14.308 -14.30705,-35.798 0,-20.663 14.30705,-35.278 Q 378.61594,-920 400.106,-920 q 20.66306,0 35.2781,14.584 14.61505,14.583 14.61505,35.416 0,21.384 -14.58305,35.692 -14.58304,14.307 -35.4161,14.307 z"
     id="path133"
     style="stroke-width:1;fill:#000000;fill-opacity:1" />
</svg>
