<?xml version="1.0" encoding="UTF-8" standalone="no"?>
<svg
   height="32"
   viewBox="0 -960 768 768"
   width="32"
   version="1.1"
   id="svg4"
   sodipodi:docname="logo-bg.svg"
   inkscape:version="1.2.2 (732a01da63, 2022-12-09)"
   inkscape:export-filename="..\..\public\logo192.png"
   inkscape:export-xdpi="576"
   inkscape:export-ydpi="576"
   xmlns:inkscape="http://www.inkscape.org/namespaces/inkscape"
   xmlns:sodipodi="http://sodipodi.sourceforge.net/DTD/sodipodi-0.dtd"
   xmlns:xlink="http://www.w3.org/1999/xlink"
   xmlns="http://www.w3.org/2000/svg"
   xmlns:svg="http://www.w3.org/2000/svg">
  <defs
     id="defs8">
    <linearGradient
       inkscape:collect="always"
       id="linearGradient3129">
      <stop
         style="stop-color:#fff0f5;stop-opacity:1;"
         offset="0"
         id="stop3125" />
      <stop
         style="stop-color:#f0ffff;stop-opacity:1;"
         offset="1"
         id="stop3127" />
    </linearGradient>
    <linearGradient
       inkscape:collect="always"
       xlink:href="#linearGradient3129"
       id="linearGradient3131"
       x1="0"
       y1="-576"
       x2="768"
       y2="-576"
       gradientUnits="userSpaceOnUse" />
  </defs>
  <sodipodi:namedview
     id="namedview6"
     pagecolor="#ffffff"
     bordercolor="#000000"
     borderopacity="0.25"
     inkscape:showpageshadow="2"
     inkscape:pageopacity="0.0"
     inkscape:pagecheckerboard="0"
     inkscape:deskcolor="#d1d1d1"
     showgrid="false"
     inkscape:zoom="5.18125"
     inkscape:cx="23.835947"
     inkscape:cy="16.598311"
     inkscape:window-width="1920"
     inkscape:window-height="1009"
     inkscape:window-x="-8"
     inkscape:window-y="-8"
     inkscape:window-maximized="1"
     inkscape:current-layer="svg4" />
  <rect
     style="fill:url(#linearGradient3131);stroke-width:132.362;stroke-linecap:round;stroke-linejoin:round;paint-order:stroke fill markers;fill-opacity:1"
     id="rect291"
     width="768"
     height="768"
     x="0"
     y="-960"
     inkscape:label="rect291" />
  <rect
     style="fill:#f7e7ce;stroke-width:124.089;stroke-linecap:round;stroke-linejoin:round;paint-order:stroke fill markers;fill-opacity:0.56470591"
     id="rect343"
     width="108.936"
     height="199.17975"
     x="609.59998"
     y="-700.79999" />
  <rect
     style="fill:#ffffff;fill-opacity:0.56470591;stroke-width:124.089;stroke-linecap:round;stroke-linejoin:round;paint-order:stroke fill markers"
     id="rect343-4"
     width="108.936"
     height="199.17975"
     x="607.15881"
     y="-913.83545" />
  <rect
     style="fill:#d0f0c0;fill-opacity:1.0;stroke-width:126.85;stroke-linecap:round;stroke-linejoin:round;paint-order:stroke fill markers"
     id="rect954"
     width="501.60001"
     height="114.35464"
     x="24"
     y="-355.51199" />
  <path
     d="m 47.077,-216 q -10.949,0 -17.013,-6.064 Q 24,-228.128 24,-239.077 V -256 h 501.539 v 16.923 q 0,10.949 -6.064,17.013 Q 513.41,-216 502.462,-216 Z M 24,-346.359 v -16.923 q 0,-10.949 6.064,-17.013 6.064,-6.064 17.013,-6.064 H 197.128 V -430.41 H 352.41 v 44.051 h 150.052 q 10.948,0 17.013,6.064 6.064,6.064 6.064,17.013 v 16.923 H 24 Z M 646.667,-216 V -470.769 Q 620.154,-492.026 600.128,-528.513 580.103,-565 580.103,-609.487 V -936 H 744 v 326.513 q 0,44.487 -18.448,81.013 -18.449,36.525 -45.039,57.705 v 220.923 H 744 V -216 Z m -32.718,-504.769 h 96.205 v -181.385 h -96.205 z m 49.641,217.692 q 19.795,-13.41 33.179,-43.385 13.385,-29.974 13.385,-63.025 v -77.436 h -96.205 v 77.436 q 0,33.051 15.102,63.025 15.103,29.975 34.539,43.385 z m -1.539,0 z"
     id="path2" />
</svg>
